<?xml version="1.0" encoding="utf-8"?><svg xmlns="http://www.w3.org/2000/svg" xmlns:xlink="http://www.w3.org/1999/xlink"><symbol viewBox="0 0 16 16" id="Search" xmlns="http://www.w3.org/2000/svg"><defs><style>.acls-1{fill:#8ebc4d;fill-rule:evenodd}</style></defs><path id="aSearch" class="acls-1" d="M381.747 26A6.76 6.76 0 1 1 375 32.76a6.753 6.753 0 0 1 6.747-6.76zm.016 1.211a5.564 5.564 0 1 1-5.547 5.564 5.556 5.556 0 0 1 5.547-5.564zm9.039 14.61a.576.576 0 0 1-.815 0l-4.047-4.014a.577.577 0 1 1 .815-.817L390.8 41a.578.578 0 0 1 0 .821z" transform="translate(-375 -26)"/></symbol><symbol viewBox="0 0 26 22" id="chat" xmlns="http://www.w3.org/2000/svg"><defs><style>.bcls-1{fill:#fff;fill-rule:evenodd}</style></defs><path id="bChat" class="bcls-1" d="M855 43s-2.7.01-5.014.01c.011.959.008 2.472-.013 2.61a.734.734 0 0 1-.959.291A11.147 11.147 0 0 1 846.938 43H842c-.827 0-.985-.321-.985-1.153v-.863c.242.009 1.033.028 1.033.028l-.034.977 5.923.011L849 44v-1.994h6v-8.987h-6.02v-.984h5.52A1.245 1.245 0 0 1 856 33.2v8.654c0 .829-.173 1.146-1 1.146zm-13.985-2.025h-1.609c-.692.61-1.972 1.731-2.669 2.308a.7.7 0 0 1-.927-.283c-.021-.138-.024-1.058-.013-2.017h-4.672A.942.942 0 0 1 830 39.847V25.1c0-.832.14-1.1.967-1.1h16.983c.826 0 1.028.237 1.028 1.069v14.154a1.817 1.817 0 0 1-1.591 1.756h-6.374v.005c-.081-.003-.101-.005.002-.005zm6.941-1l.034-14.954-16.99.014v14.944h5.945l.012 1.961 2.02-1.961h8.976zm-13.3-4.4v-.035a.54.54 0 0 1 .511-.545h9.065a.557.557 0 0 1 .511.563v.026a.456.456 0 0 1-.511.443h-9.065a.456.456 0 0 1-.51-.444zm7.33-5.55h-6.819a.456.456 0 0 1-.511-.443v-.036a.54.54 0 0 1 .512-.546h6.819a.557.557 0 0 1 .511.563v.027a.457.457 0 0 1-.511.443zm-6.819 1.981h4.573a.528.528 0 0 1 .511.532v.025a.456.456 0 0 1-.511.443h-4.573a.456.456 0 0 1-.511-.443v-.036a.512.512 0 0 1 .512-.514z" transform="translate(-830 -24)"/></symbol><symbol viewBox="0 0 24 24" id="notifications" xmlns="http://www.w3.org/2000/svg"><defs><style>.ccls-1{fill:#fff;fill-rule:evenodd}</style></defs><path id="cNotifications" class="ccls-1" d="M899.924 42.677a.7.7 0 0 1-.642.375h-22.544a.7.7 0 0 1-.642-.375 1.283 1.283 0 0 1-.091-.493.706.706 0 0 1 .144-.4 16.377 16.377 0 0 0 2.108-4.369A31.868 31.868 0 0 0 880 31c.222-1.694.469-3.386 1.241-4.3a7.437 7.437 0 0 1 1.336-1.241 8.252 8.252 0 0 1 2.762-1.332 2.6 2.6 0 0 1 .943-1.512A2.669 2.669 0 0 1 888 22a2.7 2.7 0 0 1 1.728.608 2.576 2.576 0 0 1 .956 1.512 8.244 8.244 0 0 1 2.749 1.332 7.342 7.342 0 0 1 1.335 1.241 8 8 0 0 1 1.7 4.047 42.515 42.515 0 0 0 1.284 6.67 17.086 17.086 0 0 0 2.12 4.527.665.665 0 0 1 .131.388.85.85 0 0 1-.079.352zm-3.758-5.587a52.606 52.606 0 0 1-1.152-6.166 6.667 6.667 0 0 0-1.44-3.413 6 6 0 0 0-1.165-1.021 7.232 7.232 0 0 0-2.566-1.1.717.717 0 0 1-.563-.685v-.025a1.256 1.256 0 0 0-1.28-1.241 1.271 1.271 0 0 0-1.283 1.241v.026a.691.691 0 0 1-.537.685 7.318 7.318 0 0 0-2.579 1.1 6.02 6.02 0 0 0-2.6 4.434 57.621 57.621 0 0 1-1.152 6.179A21.267 21.267 0 0 1 878 42h20a21.842 21.842 0 0 1-1.834-4.91zm-6.657 8.285a2.016 2.016 0 0 1-1.5.631 2.075 2.075 0 0 1-1.516-.631 2.011 2.011 0 0 1-.626-1.483h4.269a2.052 2.052 0 0 1-.627 1.483z" transform="translate(-876 -22)"/></symbol></svg>